<?xml version="1.0" encoding="UTF-8"?>
<svg width="1200pt" height="1200pt" version="1.1" viewBox="0 0 1200 1200" xmlns="http://www.w3.org/2000/svg">
 <path d="m917.82 887.01-3.625 13.293c9.668 2.418 30.211 10.875 31.422 19.336 2.418 14.5-6.043 35.047-6.043 35.047l12.086 4.832c0-1.207 10.875-25.379 7.25-43.504-2.418-19.336-36.254-27.793-41.09-29.004zm-149.85 79.758c-62.84-7.25-123.26-42.297-123.26-42.297l-7.25 10.875s3.625 2.418 8.4609 4.832c4.832 13.293 32.629 72.508 105.14 83.383 4.832 1.207 10.875 1.207 15.711 1.207 68.883 0 125.68-67.672 134.14-78.551 9.668-4.832 16.918-8.4609 16.918-9.668l-7.25-10.875c-0.007812 0.007813-79.766 48.348-142.61 41.094zm-14.504 43.508c-49.547-7.25-76.133-39.879-87.008-60.422 24.168 10.875 61.633 25.379 101.51 30.211 4.832 0 9.668 1.207 14.5 1.207 30.211 0 62.84-9.668 88.219-20.543-26.586 24.168-70.09 56.797-117.22 49.547zm-103.93-120.85v-13.293c-4.832 0-48.34 2.418-55.59 25.379-6.043 20.543 4.832 49.547 4.832 50.754l12.086-4.832s-9.668-25.379-4.832-42.297c3.625-10.875 30.211-14.504 43.504-15.711zm53.172-6.043c6.043 2.418 14.5 2.418 22.961 1.207 7.25 0 18.125-1.207 20.543 2.418 2.418 1.207 3.625 4.832 4.832 7.25 4.832 8.4609 12.086 19.336 29.004 20.543h4.832c12.086 0 21.754-4.832 30.211-8.4609 6.043-2.418 10.875-4.832 16.918-6.043 6.043-1.207 12.086-1.207 18.125-1.207 10.875 0 20.543 0 27.793-4.832 10.875-7.25 15.711-24.168 15.711-26.586l-13.293-3.625c-1.207 3.625-4.832 14.5-10.875 19.336-3.625 2.418-10.875 2.418-19.336 2.418-6.043 0-13.293 0-20.543 1.207-7.25 1.207-13.293 3.625-19.336 7.25-9.668 4.832-18.125 8.4609-29.004 7.25-10.875-1.207-14.5-7.25-19.336-14.5-2.418-3.625-4.832-7.25-7.25-9.668-7.25-6.043-18.125-6.043-30.211-6.043-7.25 0-13.293 0-18.125-1.207-4.832-1.207-6.043-14.5-6.043-20.543l-13.293-1.207c1.2148 3.625 0.003906 29 15.715 35.043zm442.3-299.7c-3.625-6.043-9.668-9.668-16.918-9.668-2.418 0-4.832 0-7.25 1.207 1.207-13.293 3.625-27.793 4.832-39.879 3.625-33.836 4.832-67.672 6.043-100.3 2.418-39.879 3.625-88.219 1.207-143.81 0-9.668-1.207-19.336-2.418-29.004-1.207-16.918-1.207-27.793-1.207-27.793 0-2.418-6.043-48.34-45.922-97.887-3.625-4.832-7.25-8.4609-10.875-12.086-12.086-13.293-26.586-25.379-42.297-35.047-24.168-16.918-50.754-29.004-77.34-37.461l-21.754-18.125v12.086c-6.043-1.207-13.293-3.625-19.336-4.832l-24.168-29.004s1.207 7.25-2.418 21.754c-19.336-3.625-37.461-4.832-54.379-6.043-13.293-1.207-26.586-1.207-39.879-1.207l-16.918-6.043 1.207 7.25c-42.297 2.418-78.551 9.668-108.76 19.336h-22.961l1.207 8.4609c-24.168 8.4609-45.922 18.125-65.258 30.211l-45.918 9.6641s6.043 6.043 10.875 13.293c-27.793 25.379-47.129 55.59-55.59 91.844-2.418 6.043-3.625 9.668-3.625 9.668-1.207 4.832-33.836 100.3-32.629 267.07-26.586 10.875-100.3 38.672-109.97 44.715-7.25 3.625-47.129 30.211-87.008 58.008-1.207-7.25-4.832-15.711-9.668-21.754-13.293-16.918-36.254-16.918-51.965-13.293-19.336 6.043-16.918 30.211-14.5 50.754 0 2.418 0 4.832 1.207 7.25 1.207 10.875 0 22.961-1.207 29.004-6.043 4.832-10.875 8.4609-12.086 9.668-9.668 8.4609-10.875 22.961-13.293 45.922-1.207 14.5-3.625 30.211-7.25 45.922-15.711 60.422-50.754 192.14-65.258 218.73-15.711 30.211-38.672 66.465-38.672 67.672l-4.832 6.0391 4.832 7.25c1.207 1.207 22.961 37.461 77.34 60.422 53.172 22.961 101.51 25.379 103.93 25.379h1.207c4.832 0 19.336-1.207 41.086-8.4609 21.754-7.25 37.461-39.879 54.379-82.176 3.625-9.668 7.25-18.125 10.875-24.168 10.875-21.754 27.793-60.422 35.047-76.133 9.668-1.207 25.379-4.832 35.047-7.25 16.918-4.832 32.629-16.918 39.879-24.168 3.625-3.625 22.961-25.379 39.879-45.922 4.832 27.793 10.875 51.965 16.918 72.508 29.004 95.469 96.676 183.69 132.93 215.11 36.254 30.211 61.633 43.504 123.26 48.34h7.25c58.008 0 105.14-45.922 109.97-51.965 9.668-7.25 109.97-94.262 149.85-176.43 12.086-25.379 25.379-59.215 37.461-99.094 4.832 0 10.875-1.207 16.918-3.625 1.207 0 1.207-1.207 2.418-1.207 12.086-3.625 19.336-9.668 29.004-32.629 6.043-16.918 19.336-73.715 27.793-120.85 19.352-103.93 13.309-112.39 9.6836-117.22zm-940.18-14.504c7.25-1.207 15.711-1.207 20.543 4.832 3.625 3.625 4.832 13.293 6.043 21.754-8.4609 6.043-16.918 10.875-24.168 16.918v-12.086c0-2.418 0-4.832-1.207-7.25 0-6.0391-1.2109-18.125-1.2109-24.168zm283.99 181.27c-1.207 2.418-4.832 10.875-9.668 13.293-13.293 7.25-18.125 13.293-20.543 15.711v1.207l-126.89-31.422-3.625 10.879 125.68 31.422 9.668 4.832c6.043 3.625 13.293 8.4609 14.5 12.086-4.832 10.875-44.715 60.422-54.379 68.883-9.668 9.668-20.543 15.711-29.004 18.125-8.4609 2.418-22.961 4.832-32.629 6.043l3.625-22.961 35.047-15.711 8.4609-20.543-44.715-25.379-15.711 89.426-2.418 6.043s-24.168 54.379-37.461 82.176c-3.625 7.25-7.25 15.711-10.875 25.379-9.668 21.754-25.379 62.84-38.672 67.672-19.336 7.25-32.629 7.25-32.629 7.25-3.625 0-48.34-3.625-95.469-24.168-33.836-14.5-53.172-33.836-60.422-43.504 7.25-12.086 22.961-38.672 35.047-61.633 19.336-36.254 66.465-222.36 67.672-224.77 4.832-16.918 6.043-35.047 7.25-49.547 1.207-10.875 2.418-25.379 4.832-29.004 12.086-9.668 155.89-109.97 169.18-116.01 9.668-4.832 78.551-31.422 116.01-45.922 7.25 0 25.379 1.207 45.922 1.207 16.918 0 33.836-1.207 42.297-2.418 1.207 2.418 1.207 4.832 0 6.043-10.875 10.875-18.125 15.711-44.715 24.168-14.5 4.832-29.004 7.25-39.879 8.4609-10.875 1.207-19.336 2.418-25.379 6.043-9.668 4.832-82.176 50.754-96.676 60.422l-16.918 10.875-64.047 3.625 1.207 13.293 54.379-3.625 119.64-1.207c7.25 6.043 16.918 14.5 18.125 21.754 2.418 8.4609-3.625 32.629-8.4609 45.922v1.207l-152.26-18.125-1.207 13.293 151.06 15.711 12.086 3.625s13.293 3.625 21.754 14.5c4.8281 7.2539 2.4141 20.547 1.2031 25.379zm-119.64 113.59 4.832-26.586 18.125 12.086-2.418 4.832zm39.879-265.86v2.418h-3.625c1.2109-1.2109 2.418-2.418 3.625-2.418zm589.73 348.04c-38.672 79.758-142.6 167.98-143.81 167.98l-1.207 1.207s-45.922 47.129-97.887 43.504c-56.797-3.625-76.133-15.711-108.76-42.297-29.004-24.168-96.676-108.76-124.47-201.81-8.4609-26.586-14.5-58.008-20.543-96.676 0-1.207 1.207-2.418 1.207-2.418 2.418-7.25 2.418-18.125-10.875-30.211 14.5-8.4609 20.543-25.379 20.543-26.586v-1.207c1.207-3.625 7.25-30.211-7.25-49.547-7.25-8.4609-15.711-14.5-21.754-18.125 3.625-13.293 9.668-35.047 6.043-49.547-4.832-20.543-30.211-37.461-32.629-38.672l-3.625-2.418h-20.543v-18.125c9.668-6.043 16.918-10.875 21.754-13.293 2.418 3.625 6.043 12.086 7.25 24.168h26.586c2.418 6.043 7.25 18.125 13.293 26.586 7.25 10.875 36.254 43.504 49.547 58.008 0 20.543 2.418 54.379 10.875 77.34 13.293 37.461 35.047 47.129 79.758 54.379 9.668 1.207 19.336 2.418 27.793 2.418 37.461 0 72.508-13.293 90.633-35.047 19.336-24.168 37.461-73.715 43.504-89.426l29.004 2.418c1.207 15.711 4.832 48.34 13.293 74.926 12.086 39.879 32.629 65.258 95.469 67.672h7.25c58.008 0 84.594-24.168 102.72-49.547 1.207-2.418 3.625-4.832 4.832-8.4609-18.117 68.887-37.453 130.52-57.996 172.81zm-406.04-310.57-82.176-79.758c3.625-1.207 7.25-1.207 10.875-2.418 31.422-9.668 41.086-15.711 55.59-30.211 14.5-14.5 9.668-35.047-2.418-48.34l-4.832-4.832-7.25 1.2109s-10.875 1.207-24.168 2.418l14.5-44.715 4.832-22.961 20.543-45.922c2.418 0 4.832-1.207 8.4609-1.207l2.418 16.918 16.918-20.543c1.207 0 3.625 0 6.043-1.207l2.418 16.918 12.086-16.918 7.25 12.086 10.875-8.4609 8.4609 9.668 6.043-18.125c3.625 0 7.25-1.207 10.875-1.207l8.4609 12.086 19.336-14.5c2.418 0 3.625 0 6.043-1.207l7.25 16.918 21.754-19.336h4.832l1.207 14.5 12.086-15.711c12.086-1.207 24.168-2.418 37.461-2.418l6.043 14.5 29.004-4.832 12.086-1.207s8.4609 10.875 12.086 15.711c3.625 3.625 50.754-16.918 50.754-16.918l2.418 18.125 43.504-18.125s2.418 7.25-2.418 13.293c-4.832 6.043-14.5 18.125-14.5 18.125s13.293-4.832 21.754-7.25c8.4609-2.418 13.293-10.875 13.293-10.875l-10.875 36.254s13.293-8.4609 26.586-22.961c13.293-14.5 14.5-25.379 14.5-25.379l15.711 3.625-6.043 18.125s30.211-15.711 36.254-25.379c4.832-4.832 7.25-10.875 9.668-9.668 4.832 2.418 2.418 27.793 4.832 35.047v1.207c-1.207 3.625-2.418 7.25-3.625 9.668-8.4609 20.543-19.336 35.047-19.336 35.047s16.918-8.4609 30.211-22.961c8.4609 24.168 18.125 55.59 21.754 80.965 6.043 35.047 12.086 96.676 14.5 124.47 0 2.418-1.207 6.043-1.207 8.4609l-19.336 73.715zm516.01 66.465c-9.668 48.34-20.543 97.887-25.379 109.97-6.043 15.711-8.4609 15.711-12.086 16.918-1.207 0-2.418 1.207-3.625 1.207 19.336-68.883 37.461-147.43 48.34-221.15l6.043-6.043c0 13.297-2.418 42.301-13.293 99.098z"/>
</svg>
