<?xml version="1.0" encoding="UTF-8"?>
<svg width="1200pt" height="1200pt" version="1.1" viewBox="0 0 1200 1200" xmlns="http://www.w3.org/2000/svg">
 <path d="m1083.7 570.3c-1.8945-1.3789-47.605-33.793-127.09-33.793-88.246 0-212.89 68.195-248.99 89.102-15.203 8.7969-25.031 10.547-35.676 10.285-5.0039-0.48047-8.2305-0.58984-9.4688-0.61328-0.82812-0.070312-1.6094-0.13281-2.4609-0.21484-19.957-1.8594-44.734-4.1289-94.453 13.895-37.883 13.715-57.875 29.352-77.195 44.461-7.3203 5.7227-14.879 11.641-23.387 17.41-11.832 8.0273-25.32 12.012-34.297 13.945 0.40625-6.2383 0.69531-13.094 0.83984-20.855 0.14453-7.5977 0.21484-18.961 0.32422-32.93 0.45703-66.48 1.6914-243.07 17.461-268.6 10.57-17.137 19.945-38.617 27.469-55.895 3.8516-8.832 8.5078-19.523 11.074-23.879 6.3359-1.4023 16.934-5.0742 31.645-10.957 8.2422 3.5156 26.23 9.3242 43.117 2.125 3.9102-1.668 8.2695-3.7305 12.996-5.9766 16.812-7.9688 37.727-17.879 58.656-19.273 26.195-1.7539 69.516-12.707 77.773-25.922 4.2109-6.7422 13.43-15.445 18.996-16.559 8.1016-1.6211 15.266-7.8008 18.73-16.129 3.6367-8.7969 2.6523-18.422-2.6875-26.438-2.5195-3.7812-5.7969-6.1914-9.4688-7.6562 1.5234-4.2617 2.4844-8.7344 2.4844-13.105 0-10.57-2.9883-17.902-6.3945-23.004 4.3672-5.293 7.6914-12.457 6.2656-21.035-1.957-11.676-17.977-21.961-71.398-45.852-4.2617-1.8945-7.8477-3.5039-10.43-4.7148-3.7695-1.7773-8.0742-5.2188-12.648-8.8555-12.574-10.008-29.809-23.711-55.559-17.891-22.191 5.0156-212.59 148.07-230.05 199.43-6.9609 20.484-30.254 63.023-57.203 112.3-35.34 64.586-79.32 144.95-111.27 219.66-36.254 84.793-58.465 181.31-66.012 286.86l-0.33594 4.6328c-0.44531 5.7969-2.6289 11.867-5.1484 18.91-7.0898 19.754-15.91 44.352 6.5664 81.551 35.074 58.055 234.48 82.922 395.58 93.539 164.69 10.883 251.72-58.824 282.37-90.504 24.926 79.957 79.309 145.68 81.781 148.63 2.0039 2.3906 4.8477 3.6133 7.7266 3.6133 2.2812 0 4.5703-0.76953 6.4453-2.3398 4.2734-3.5625 4.8359-9.9102 1.2852-14.172-0.625-0.75781-62.41-75.492-82.801-158.9-0.9375-3.8164-4.0078-6.7578-7.8711-7.4883-3.8164-0.73047-7.8008 0.83984-10.094 4.0312-0.79297 1.1055-80.988 109.95-277.52 97.043-217.77-14.363-356.15-44.941-379.67-83.855-17.52-29.004-11.363-46.176-4.8477-64.367 2.7617-7.7031 5.6172-15.672 6.2656-24.156l0.34766-4.7383c7.3906-103.32 29.074-197.65 64.453-280.39 31.559-73.801 75.277-153.71 110.4-217.89 28.535-52.152 51.086-93.336 58.609-115.48 14.734-43.355 194.15-179.81 215.43-186.27 16.379-3.6836 27.168 4.9062 38.578 13.992 5.5195 4.3906 10.727 8.543 16.633 11.328 2.6523 1.2461 6.3711 2.9141 10.766 4.8828 13.309 5.9531 53.062 23.723 59.809 31.715-0.070312 1.043-0.52734 2.0391-1.1523 2.9648-13.633-10.355-29.902-17.41-32.316-18.422-5.1367-2.1484-11.016 0.26562-13.176 5.3867-2.1602 5.125 0.26562 11.027 5.375 13.176 7.6211 3.1914 29.16 13.859 37.309 24.719 0.37109 0.50391 0.9375 0.73047 1.3789 1.1406 1.2617 2.3164 2.3984 5.7461 2.3984 10.836 0 5.0039-2.6992 10.211-4.668 12.938-0.88672-1.9219-1.8008-3.8398-3.1211-5.7461-0.35938-0.52734-0.70703-0.97266-0.85156-1.2109-2.1133-4.9336-10.789-14.148-44.09-48.156-15.371-15.695-31.262-31.934-41.242-43.078-9.2383-10.559-25.262-21.59-57.938 4.3555-4.3555 3.457-5.0898 9.793-1.6328 14.148 3.4688 4.3672 9.8047 5.0898 14.148 1.6328 21.406-16.992 26.52-11.148 30.266-6.875 0.023438 0.023438 0.79297 0.89844 0.82812 0.9375 9.6133 10.727 25.668 27.133 41.195 42.984 16.766 17.113 37.609 38.398 39.973 42.012 0.79297 1.8242 1.8242 3.3125 2.8203 4.7539 0.98438 1.4141 2.293 3.3828 2.1016 6.4688-4.2617-5.1719-10.141-9.4805-15.742-13.559-5.8906-4.2969-12.574-9.1562-19.211-15.59-26.062-25.262-43.164-47.785-43.332-48.012-3.3477-4.4414-9.6719-5.3164-14.09-1.9688-4.4414 3.3477-5.3164 9.6602-1.9805 14.09 0.73047 0.97266 18.133 23.93 45.383 50.34 7.6562 7.4141 15.254 12.961 21.359 17.41 15.086 10.98 15.469 12.434 11.531 19.285-3.9102 3.457-8.6172 7.2734-14.508 11.617l-4.668 3.5508c-22.066 16.945-41.207 27.863-66.695 2.7852 4.3555-5.7617 8.2812-11.219 10.668-14.93 1.8594-0.16797 4.1875 1.0781 4.8242 1.7656 1.4883 1.9336 5.207 10.848 7.957 19.078 1.7539 5.2812 7.4648 8.1367 12.73 6.3594 5.2812-1.7656 8.125-7.4648 6.3711-12.73-1.9062-5.7227-6.8398-19.668-11.34-25.285-4.8242-6.0117-13.906-9.8398-21.816-9.2891-7.1289 0.48047-13.117 4.1758-16.848 10.402-5.6289 9.3828-22.848 31.223-27.492 34.871-2.7969 2.1953-6.4219 4.2617-9.9258 6.2383-6.3594 3.6016-12.938 7.3438-17.102 13.164-4.2734 5.9766-7.5859 9.8867-17.664 13.836-0.023437 0.011718-0.035156 0.035156-0.070313 0.046875-0.011718 0-0.035156 0-0.046874 0.011719-13.188 5.3633-29.723 11.387-32.855 11.797-9.4688 0-13.031 8.1836-24.852 35.305-7.2734 16.691-16.32 37.453-26.137 53.352-15.551 25.164-19.43 129.76-20.461 279.05-0.097656 13.859-0.17969 25.141-0.32422 32.676-0.82812 44.027-5.9766 57.926-13.105 77.16l-2.6992 7.3672c-6.2383 17.328-35.723 41.426-46.559 49.234-4.5 3.2539-5.5195 9.5508-2.2695 14.051 1.9688 2.7227 5.0508 4.1758 8.1719 4.1758 2.0391 0 4.0938-0.61328 5.8789-1.8945 4.5-3.2539 44.258-32.473 53.723-58.766l2.6406-7.1875c4.7148-12.73 8.8086-23.809 11.426-42 9.9492-1.6328 29.965-6.1797 47.688-18.215 9.0586-6.1445 16.895-12.266 24.48-18.203 18.91-14.797 36.781-28.766 71.652-41.41 45.492-16.477 67.812-14.398 85.754-12.77 4.2344 0.39453 8.3398 0.76953 12.48 0.91016 20.195 2.0625 72.898 11.316 131.57 53.051 1.7773 1.2617 3.8164 1.8594 5.832 1.8594 3.1445 0 6.2383-1.4766 8.207-4.2227 3.2266-4.5352 2.1719-10.824-2.3633-14.039-37.094-26.398-71.844-40.57-98.809-48.277 0.88672-0.49219 1.7031-0.85156 2.6172-1.3789 72.133-41.762 172.78-86.387 238.91-86.387 72.551 0 114.89 29.688 115.31 29.988 4.5 3.2266 10.801 2.2188 14.027-2.2695 3.2539-4.5 2.2461-10.801-2.2656-14.051zm-388.2-326.02c0.625-0.45703 1.1992-0.98438 1.7148-1.5859 9.1914-8.543 15.312-16.453 18.383-23.914 0.13281-0.070312 0.27734-0.070312 0.40625-0.14453 5.832-3.5625 13.332-5.3516 14.328-3.9609 2.0273 3.0352 1.5703 5.7969 0.82812 7.5586-0.97266 2.3516-2.7852 3.8398-4.0781 4.1055-13.5 2.6992-26.605 16.812-31.754 25.129-2.0039 2.0625-9.3594 5.3281-19.211 8.4844l2.9766-2.2578c6.3633-4.6914 11.629-9.1055 16.406-13.414zm-134.66 37.547c3.9609-2.2422 8.4492-4.8008 12.445-7.9453 2.3633-1.8594 5.9414-5.7227 9.875-10.32 5.6289 5.293 11.137 9.2383 16.535 12.18-12.168 4.2109-23.375 9.4688-32.699 13.883-4.4766 2.1133-8.5938 4.0664-12.289 5.6523-3.5273 1.5117-7.2852 1.9336-10.934 1.8008 2.4609-2.5664 4.4883-5.2188 6.4062-7.9062 1.5859-2.1953 6.4102-4.9336 10.66-7.3438z"/>
</svg>
