<?xml version="1.0" encoding="utf-8"?>
<!-- Generator: Adobe Illustrator 22.1.0, SVG Export Plug-In . SVG Version: 6.00 Build 0)  -->
<svg version="1.1" id="Layer_1" xmlns="http://www.w3.org/2000/svg" xmlns:xlink="http://www.w3.org/1999/xlink" x="0px" y="0px"
	 viewBox="0 0 24 24" style="enable-background:new 0 0 24 24;" xml:space="preserve">
<g>
	<title>brain-1</title>
	<path d="M14.994,15.5c-0.827,0-1.5-0.673-1.5-1.5c0-0.686,0.458-1.27,1.109-1.444c0.386-1.16,1.286-2.06,2.447-2.447
		C17.224,9.458,17.808,9,18.494,9c0.827,0,1.5,0.673,1.5,1.5s-0.673,1.5-1.5,1.5c-0.583,0-1.106-0.342-1.351-0.858
		c-0.683,0.291-1.217,0.825-1.508,1.507c0.516,0.245,0.858,0.767,0.858,1.351C16.494,14.827,15.821,15.5,14.994,15.5z M14.994,13.5
		c-0.276,0-0.5,0.224-0.5,0.5s0.224,0.5,0.5,0.5s0.5-0.224,0.5-0.5S15.269,13.5,14.994,13.5z M18.494,10c-0.276,0-0.5,0.224-0.5,0.5
		s0.224,0.5,0.5,0.5s0.5-0.224,0.5-0.5S18.769,10,18.494,10z"/>
	<path d="M14.928,24.001c-1.108,0-2.162-0.445-2.935-1.229c-0.772,0.784-1.828,1.229-2.936,1.229c-0.034,0-0.145-0.002-0.145-0.002
		c-0.95-0.024-1.834-0.417-2.49-1.106c-0.547-0.575-0.884-1.312-0.963-2.094c-2.115-0.401-3.671-2.277-3.651-4.447
		c0-0.221,0.017-0.444,0.049-0.665c-0.47-0.345-0.877-0.783-1.183-1.276c-1.269-2.044-0.745-4.688,1.183-6.094
		C1.826,8.096,1.81,7.872,1.81,7.649C1.788,5.48,3.344,3.603,5.461,3.202C5.641,1.412,7.141,0.022,8.961,0
		c0.338,0.019,0.664,0.078,0.987,0.176c0.014-0.002,0.028-0.003,0.044-0.003c0.137,0.003,0.258,0.055,0.349,0.145
		c0.658,0.274,1.222,0.702,1.653,1.25c0.724-0.921,1.82-1.5,2.998-1.567l0.077,0c0.955,0.024,1.84,0.417,2.496,1.106
		c0.546,0.575,0.884,1.312,0.963,2.095c1.267,0.242,2.396,1.046,3.051,2.182c0.011,0.013,0.024,0.031,0.036,0.056
		c0.005,0.01,0.01,0.024,0.015,0.038c0.366,0.671,0.556,1.422,0.549,2.174c-0.002,0.222-0.019,0.445-0.053,0.665
		c1.16,0.849,1.872,2.246,1.869,3.685c0.003,1.437-0.709,2.833-1.869,3.682c0.033,0.219,0.051,0.443,0.053,0.666
		c0.022,2.171-1.534,4.049-3.651,4.45c-0.08,0.8-0.429,1.549-0.995,2.128c-0.665,0.681-1.554,1.062-2.506,1.074L14.928,24.001z
		 M6.464,20.746c0.065,0.546,0.304,1.058,0.684,1.458c0.472,0.496,1.108,0.778,1.792,0.795l0.115,0.002
		c0.943,0,1.849-0.438,2.439-1.176v-3.867c0-0.276,0.224-0.5,0.5-0.5c0.276,0,0.5,0.224,0.5,0.5v3.868
		c0.597,0.748,1.48,1.175,2.437,1.175L15.007,23c0.689-0.008,1.33-0.282,1.808-0.772c0.47-0.482,0.729-1.116,0.729-1.789
		c-0.183-0.612-0.421-1.025-0.723-1.253C16.569,19.677,16.059,20,15.494,20c-0.827,0-1.5-0.673-1.5-1.5s0.673-1.5,1.5-1.5
		c0.69,0,1.276,0.462,1.446,1.119c0.632,0.25,1.116,0.816,1.441,1.684c1.624-0.328,2.813-1.775,2.796-3.447
		c-0.002-0.268-0.033-0.534-0.092-0.793c-0.048-0.209,0.042-0.425,0.225-0.537c1.041-0.642,1.686-1.802,1.683-3.025
		c0.003-1.227-0.642-2.387-1.684-3.03c-0.182-0.113-0.272-0.328-0.225-0.537c0.059-0.259,0.091-0.526,0.092-0.792
		c0.004-0.449-0.078-0.886-0.244-1.304l-2.316,1.159c-0.478,0.24-1.011,0.366-1.54,0.366c-0.383,0-0.765-0.068-1.139-0.201
		C15.671,7.882,15.341,8,14.994,8c-0.827,0-1.5-0.673-1.5-1.5s0.673-1.5,1.5-1.5s1.5,0.673,1.5,1.5c0,0.094-0.01,0.189-0.029,0.283
		c0.202,0.053,0.409,0.08,0.617,0.08c0.379,0,0.745-0.087,1.088-0.259l2.264-1.133C19.836,4.704,18.964,4.222,18,4.137
		c-0.262-0.023-0.462-0.247-0.456-0.51c0.017-0.684-0.233-1.334-0.704-1.83s-1.108-0.779-1.792-0.796l-0.034,0
		c-1.043,0.061-2.01,0.682-2.52,1.625V14c0,0.276-0.224,0.5-0.5,0.5c-0.276,0-0.5-0.224-0.5-0.5V2.625
		c-0.248-0.458-0.613-0.85-1.049-1.133c-0.068,0.657-0.202,1.308-0.402,1.944c0.289,0.282,0.451,0.661,0.451,1.065
		c0,0.827-0.673,1.5-1.5,1.5s-1.5-0.673-1.5-1.5S8.166,3,8.994,3c0.044,0,0.089,0.002,0.134,0.007
		C9.315,2.38,9.431,1.733,9.474,1.079C9.296,1.036,9.117,1.01,8.939,0.999c-0.656,0.009-1.29,0.283-1.768,0.773
		c-0.478,0.49-0.737,1.136-0.729,1.82l0.001,0.034c0.007,0.262-0.193,0.487-0.456,0.51c-1.8,0.159-3.196,1.699-3.178,3.506
		c0,0.153,0.012,0.312,0.037,0.483c1.08,0.246,2.095,0.747,2.955,1.459l1.205-0.904C6.998,8.619,6.994,8.559,6.994,8.5
		c0-0.827,0.673-1.5,1.5-1.5s1.5,0.673,1.5,1.5S9.321,10,8.494,10c-0.387,0-0.75-0.148-1.028-0.413l-0.931,0.698
		c0.339,0.373,0.636,0.781,0.888,1.217C7.446,11.501,7.469,11.5,7.494,11.5c0.827,0,1.5,0.673,1.5,1.5c0,0.827-0.673,1.5-1.5,1.5
		s-1.5-0.673-1.5-1.5c0-0.428,0.182-0.829,0.496-1.112C5.612,10.44,4.181,9.424,2.52,9.078c-1.54,1.071-1.989,3.205-0.995,4.806
		c0.288,0.463,0.685,0.86,1.148,1.147c0.181,0.112,0.271,0.327,0.224,0.534c-0.058,0.26-0.088,0.526-0.088,0.792
		c-0.016,1.78,1.348,3.309,3.113,3.498c0.705-0.134,1.312-0.543,1.7-1.139c-0.389-0.279-0.629-0.732-0.629-1.216
		c0-0.827,0.673-1.5,1.5-1.5s1.5,0.673,1.5,1.5c0,0.786-0.607,1.433-1.377,1.495C8.159,19.847,7.389,20.473,6.464,20.746z
		 M15.494,18c-0.276,0-0.5,0.224-0.5,0.5s0.224,0.5,0.5,0.5s0.5-0.224,0.5-0.5S15.769,18,15.494,18z M8.494,17
		c-0.276,0-0.5,0.224-0.5,0.5s0.224,0.5,0.5,0.5s0.5-0.224,0.5-0.5S8.769,17,8.494,17z M7.494,12.5c-0.276,0-0.5,0.224-0.5,0.5
		s0.224,0.5,0.5,0.5s0.5-0.224,0.5-0.5S7.769,12.5,7.494,12.5z M8.494,8c-0.276,0-0.5,0.224-0.5,0.5S8.218,9,8.494,9
		s0.5-0.224,0.5-0.5S8.769,8,8.494,8z M14.994,6c-0.276,0-0.5,0.224-0.5,0.5s0.224,0.5,0.5,0.5s0.5-0.224,0.5-0.5S15.269,6,14.994,6
		z M8.994,4c-0.276,0-0.5,0.224-0.5,0.5S8.718,5,8.994,5s0.5-0.224,0.5-0.5S9.269,4,8.994,4z"/>
</g>
</svg>
