<?xml version="1.0" encoding="UTF-8" standalone="no"?><svg xmlns="http://www.w3.org/2000/svg" xmlns:xlink="http://www.w3.org/1999/xlink" contentStyleType="text/css" height="353px" preserveAspectRatio="none" style="width:545px;height:353px;background:#FFFFFF;" version="1.1" viewBox="0 0 545 353" width="545px" zoomAndPan="magnify"><defs/><g><text fill="#000000" font-family="sans-serif" font-size="14" font-weight="bold" lengthAdjust="spacing" textLength="48" x="241.5" y="22.9951">Model</text><!--cluster test--><g id="cluster_test"><path d="M8.5,43.2969 L43.5,43.2969 A3.75,3.75 0 0 1 46,45.7969 L53,65.5938 L535.5,65.5938 A2.5,2.5 0 0 1 538,68.0938 L538,220.7969 A2.5,2.5 0 0 1 535.5,223.2969 L8.5,223.2969 A2.5,2.5 0 0 1 6,220.7969 L6,45.7969 A2.5,2.5 0 0 1 8.5,43.2969 " fill="none" style="stroke:#000000;stroke-width:1.5;"/><line style="stroke:#000000;stroke-width:1.5;" x1="6" x2="53" y1="65.5938" y2="65.5938"/><text fill="#000000" font-family="sans-serif" font-size="14" font-weight="bold" lengthAdjust="spacing" textLength="34" x="10" y="58.292">test</text></g><!--cluster concerto--><g id="cluster_concerto"><path d="M256.5,247.2969 L329.5,247.2969 A3.75,3.75 0 0 1 332,249.7969 L339,269.5938 L377.5,269.5938 A2.5,2.5 0 0 1 380,272.0938 L380,343.7969 A2.5,2.5 0 0 1 377.5,346.2969 L256.5,346.2969 A2.5,2.5 0 0 1 254,343.7969 L254,249.7969 A2.5,2.5 0 0 1 256.5,247.2969 " fill="none" style="stroke:#000000;stroke-width:1.5;"/><line style="stroke:#000000;stroke-width:1.5;" x1="254" x2="339" y1="269.5938" y2="269.5938"/><text fill="#000000" font-family="sans-serif" font-size="14" font-weight="bold" lengthAdjust="spacing" textLength="72" x="258" y="262.292">concerto</text></g><!--class test.Country--><g id="elem_test.Country"><rect codeLine="4" fill="#F1F1F1" height="129.4844" id="test.Country" rx="2.5" ry="2.5" style="stroke:#181818;stroke-width:0.5;" width="97" x="424.5" y="78.2969"/><ellipse cx="443.1" cy="94.2969" fill="#808080" rx="11" ry="11" style="stroke:#181818;stroke-width:1.0;"/><path d="M441.8969,95.1719 L443.35,95.1719 L443.35,95.2813 C443.35,95.6875 443.3813,95.8438 443.4594,96 C443.6156,96.25 443.8969,96.4063 444.1938,96.4063 C444.4438,96.4063 444.7094,96.2656 444.8656,96.0469 C444.9906,95.8906 445.0219,95.7344 445.0219,95.2813 L445.0219,93.3594 C445.0219,93.2031 445.0219,93.1563 445.0063,93 C444.9438,92.5313 444.6313,92.2188 444.1781,92.2188 C443.9281,92.2188 443.6625,92.3594 443.4906,92.5781 C443.3813,92.75 443.35,92.9063 443.35,93.3594 L443.35,93.4844 L441.8969,93.4844 L441.8969,91.0781 L445.8813,91.0781 L445.8813,91.9375 C445.8813,92.3438 445.9125,92.5156 445.9906,92.6719 C446.1625,92.9219 446.4438,93.0781 446.725,93.0781 C446.9906,93.0781 447.2563,92.9375 447.4281,92.7188 C447.5375,92.5469 447.5688,92.4063 447.5688,91.9375 L447.5688,89.3906 L439.9438,89.3906 C439.5063,89.3906 439.3813,89.4063 439.225,89.5 C438.975,89.6563 438.8188,89.9531 438.8188,90.2344 C438.8188,90.5156 438.9594,90.7656 439.1781,90.9375 C439.3344,91.0469 439.5219,91.0781 439.9438,91.0781 L440.1938,91.0781 L440.1938,97.5938 L439.9438,97.5938 C439.5375,97.5938 439.3813,97.6094 439.225,97.7188 C438.975,97.8906 438.8188,98.1563 438.8188,98.4531 C438.8188,98.7188 438.9594,98.9688 439.1781,99.125 C439.3188,99.25 439.5531,99.2969 439.9438,99.2969 L447.9438,99.2969 L447.9438,96.7188 C447.9438,96.2813 447.9125,96.1406 447.8344,95.9844 C447.6625,95.7344 447.3813,95.5781 447.1,95.5781 C446.8344,95.5781 446.5688,95.6875 446.3969,95.9375 C446.2875,96.0938 446.2563,96.2344 446.2563,96.7188 L446.2563,97.5938 L441.8969,97.5938 L441.8969,95.1719 Z " fill="#000000"/><text fill="#000000" font-family="sans-serif" font-size="14" lengthAdjust="spacing" textLength="57" x="457.9" y="99.1436">Country</text><line style="stroke:#181818;stroke-width:0.5;" x1="425.5" x2="520.5" y1="110.2969" y2="110.2969"/><ellipse cx="435.5" cy="123.9453" fill="none" rx="3" ry="3" style="stroke:#038048;stroke-width:1.0;"/><text fill="#000000" font-family="sans-serif" font-size="14" lengthAdjust="spacing" textLength="19" x="444.5" y="127.292">UK</text><ellipse cx="435.5" cy="140.2422" fill="none" rx="3" ry="3" style="stroke:#038048;stroke-width:1.0;"/><text fill="#000000" font-family="sans-serif" font-size="14" lengthAdjust="spacing" textLength="28" x="444.5" y="143.5889">USA</text><ellipse cx="435.5" cy="156.5391" fill="none" rx="3" ry="3" style="stroke:#038048;stroke-width:1.0;"/><text fill="#000000" font-family="sans-serif" font-size="14" lengthAdjust="spacing" textLength="57" x="444.5" y="159.8857">FRANCE</text><ellipse cx="435.5" cy="172.8359" fill="none" rx="3" ry="3" style="stroke:#038048;stroke-width:1.0;"/><text fill="#000000" font-family="sans-serif" font-size="14" lengthAdjust="spacing" textLength="71" x="444.5" y="176.1826">GERMANY</text><ellipse cx="435.5" cy="189.1328" fill="none" rx="3" ry="3" style="stroke:#038048;stroke-width:1.0;"/><text fill="#000000" font-family="sans-serif" font-size="14" lengthAdjust="spacing" textLength="43" x="444.5" y="192.4795">JAPAN</text><line style="stroke:#181818;stroke-width:0.5;" x1="425.5" x2="520.5" y1="199.7813" y2="199.7813"/></g><!--class test.Address--><g id="elem_test.Address"><rect codeLine="12" fill="#F1F1F1" height="113.1875" id="test.Address" rx="2.5" ry="2.5" style="stroke:#181818;stroke-width:0.5;" width="144" x="245" y="86.2969"/><ellipse cx="284.75" cy="102.2969" fill="#ADD1B2" rx="11" ry="11" style="stroke:#181818;stroke-width:1.0;"/><path d="M287.0938,97.9688 C286.1563,97.5313 285.5625,97.3906 284.6875,97.3906 C282.0625,97.3906 280.0625,99.4688 280.0625,102.1875 L280.0625,103.3125 C280.0625,105.8906 282.1719,107.7813 285.0625,107.7813 C286.2813,107.7813 287.4375,107.4844 288.1875,106.9375 C288.7656,106.5313 289.0938,106.0781 289.0938,105.6875 C289.0938,105.2344 288.7031,104.8438 288.2344,104.8438 C288.0156,104.8438 287.8125,104.9219 287.625,105.1094 C287.1719,105.5938 287.1719,105.5938 286.9844,105.6875 C286.5625,105.9531 285.875,106.0781 285.1094,106.0781 C283.0625,106.0781 281.7656,104.9844 281.7656,103.2813 L281.7656,102.1875 C281.7656,100.4063 283.0156,99.0938 284.75,99.0938 C285.3281,99.0938 285.9375,99.25 286.4063,99.5 C286.8906,99.7813 287.0625,100 287.1563,100.4063 C287.2188,100.8125 287.25,100.9375 287.3906,101.0625 C287.5313,101.2031 287.7656,101.3125 287.9844,101.3125 C288.25,101.3125 288.5156,101.1719 288.6875,100.9531 C288.7969,100.7969 288.8281,100.6094 288.8281,100.1875 L288.8281,98.7656 C288.8281,98.3281 288.8125,98.2031 288.7188,98.0469 C288.5625,97.7813 288.2813,97.6406 287.9844,97.6406 C287.6875,97.6406 287.4844,97.7344 287.2656,98.0469 L287.0938,97.9688 Z " fill="#000000"/><text fill="#000000" font-family="sans-serif" font-size="14" lengthAdjust="spacing" textLength="57" x="304.25" y="107.1436">Address</text><line style="stroke:#181818;stroke-width:0.5;" x1="246" x2="388" y1="118.2969" y2="118.2969"/><ellipse cx="256" cy="131.9453" fill="none" rx="3" ry="3" style="stroke:#038048;stroke-width:1.0;"/><text fill="#000000" font-family="sans-serif" font-size="14" lengthAdjust="spacing" textLength="93" x="265" y="135.292">String street</text><ellipse cx="256" cy="148.2422" fill="none" rx="3" ry="3" style="stroke:#038048;stroke-width:1.0;"/><text fill="#000000" font-family="sans-serif" font-size="14" lengthAdjust="spacing" textLength="75" x="265" y="151.5889">String city</text><ellipse cx="256" cy="164.5391" fill="none" rx="3" ry="3" style="stroke:#038048;stroke-width:1.0;"/><text fill="#000000" font-family="sans-serif" font-size="14" lengthAdjust="spacing" textLength="118" x="265" y="167.8857">String postCode</text><ellipse cx="256" cy="180.8359" fill="none" rx="3" ry="3" style="stroke:#038048;stroke-width:1.0;"/><text fill="#000000" font-family="sans-serif" font-size="14" lengthAdjust="spacing" textLength="116" x="265" y="184.1826">Country country</text><line style="stroke:#181818;stroke-width:0.5;" x1="246" x2="388" y1="191.4844" y2="191.4844"/></g><!--class test.Person--><g id="elem_test.Person"><rect codeLine="19" fill="#F1F1F1" height="113.1875" id="test.Person" rx="2.5" ry="2.5" style="stroke:#181818;stroke-width:0.5;" width="187" x="22.5" y="86.2969"/><ellipse cx="87.25" cy="102.2969" fill="#ADD1B2" rx="11" ry="11" style="stroke:#181818;stroke-width:1.0;"/><path d="M89.5938,97.9688 C88.6563,97.5313 88.0625,97.3906 87.1875,97.3906 C84.5625,97.3906 82.5625,99.4688 82.5625,102.1875 L82.5625,103.3125 C82.5625,105.8906 84.6719,107.7813 87.5625,107.7813 C88.7813,107.7813 89.9375,107.4844 90.6875,106.9375 C91.2656,106.5313 91.5938,106.0781 91.5938,105.6875 C91.5938,105.2344 91.2031,104.8438 90.7344,104.8438 C90.5156,104.8438 90.3125,104.9219 90.125,105.1094 C89.6719,105.5938 89.6719,105.5938 89.4844,105.6875 C89.0625,105.9531 88.375,106.0781 87.6094,106.0781 C85.5625,106.0781 84.2656,104.9844 84.2656,103.2813 L84.2656,102.1875 C84.2656,100.4063 85.5156,99.0938 87.25,99.0938 C87.8281,99.0938 88.4375,99.25 88.9063,99.5 C89.3906,99.7813 89.5625,100 89.6563,100.4063 C89.7188,100.8125 89.75,100.9375 89.8906,101.0625 C90.0313,101.2031 90.2656,101.3125 90.4844,101.3125 C90.75,101.3125 91.0156,101.1719 91.1875,100.9531 C91.2969,100.7969 91.3281,100.6094 91.3281,100.1875 L91.3281,98.7656 C91.3281,98.3281 91.3125,98.2031 91.2188,98.0469 C91.0625,97.7813 90.7813,97.6406 90.4844,97.6406 C90.1875,97.6406 89.9844,97.7344 89.7656,98.0469 L89.5938,97.9688 Z " fill="#000000"/><text fill="#000000" font-family="sans-serif" font-size="14" lengthAdjust="spacing" textLength="49" x="107.75" y="107.1436">Person</text><line style="stroke:#181818;stroke-width:0.5;" x1="23.5" x2="208.5" y1="118.2969" y2="118.2969"/><ellipse cx="33.5" cy="131.9453" fill="none" rx="3" ry="3" style="stroke:#038048;stroke-width:1.0;"/><text fill="#000000" font-family="sans-serif" font-size="14" lengthAdjust="spacing" textLength="88" x="42.5" y="135.292">String name</text><ellipse cx="33.5" cy="148.2422" fill="none" rx="3" ry="3" style="stroke:#038048;stroke-width:1.0;"/><text fill="#000000" font-family="sans-serif" font-size="14" lengthAdjust="spacing" textLength="116" x="42.5" y="151.5889">Address address</text><ellipse cx="33.5" cy="164.5391" fill="none" rx="3" ry="3" style="stroke:#038048;stroke-width:1.0;"/><text fill="#000000" font-family="sans-serif" font-size="14" lengthAdjust="spacing" textLength="102" x="42.5" y="167.8857">Double height</text><ellipse cx="33.5" cy="180.8359" fill="none" rx="3" ry="3" style="stroke:#038048;stroke-width:1.0;"/><text fill="#000000" font-family="sans-serif" font-size="14" lengthAdjust="spacing" textLength="161" x="42.5" y="184.1826">DateTime dateOfBirth</text><line style="stroke:#181818;stroke-width:0.5;" x1="23.5" x2="208.5" y1="191.4844" y2="191.4844"/></g><!--class concerto.Concept--><g id="elem_concerto.Concept"><rect fill="#F1F1F1" height="48" id="concerto.Concept" rx="2.5" ry="2.5" style="stroke:#181818;stroke-width:0.5;" width="94" x="270" y="282.2969"/><ellipse cx="285" cy="298.2969" fill="#ADD1B2" rx="11" ry="11" style="stroke:#181818;stroke-width:1.0;"/><path d="M287.3438,293.9688 C286.4063,293.5313 285.8125,293.3906 284.9375,293.3906 C282.3125,293.3906 280.3125,295.4688 280.3125,298.1875 L280.3125,299.3125 C280.3125,301.8906 282.4219,303.7813 285.3125,303.7813 C286.5313,303.7813 287.6875,303.4844 288.4375,302.9375 C289.0156,302.5313 289.3438,302.0781 289.3438,301.6875 C289.3438,301.2344 288.9531,300.8438 288.4844,300.8438 C288.2656,300.8438 288.0625,300.9219 287.875,301.1094 C287.4219,301.5938 287.4219,301.5938 287.2344,301.6875 C286.8125,301.9531 286.125,302.0781 285.3594,302.0781 C283.3125,302.0781 282.0156,300.9844 282.0156,299.2813 L282.0156,298.1875 C282.0156,296.4063 283.2656,295.0938 285,295.0938 C285.5781,295.0938 286.1875,295.25 286.6563,295.5 C287.1406,295.7813 287.3125,296 287.4063,296.4063 C287.4688,296.8125 287.5,296.9375 287.6406,297.0625 C287.7813,297.2031 288.0156,297.3125 288.2344,297.3125 C288.5,297.3125 288.7656,297.1719 288.9375,296.9531 C289.0469,296.7969 289.0781,296.6094 289.0781,296.1875 L289.0781,294.7656 C289.0781,294.3281 289.0625,294.2031 288.9688,294.0469 C288.8125,293.7813 288.5313,293.6406 288.2344,293.6406 C287.9375,293.6406 287.7344,293.7344 287.5156,294.0469 L287.3438,293.9688 Z " fill="#000000"/><text fill="#000000" font-family="sans-serif" font-size="14" lengthAdjust="spacing" textLength="62" x="299" y="303.1436">Concept</text><line style="stroke:#181818;stroke-width:0.5;" x1="271" x2="363" y1="314.2969" y2="314.2969"/><line style="stroke:#181818;stroke-width:0.5;" x1="271" x2="363" y1="322.2969" y2="322.2969"/></g><!--link test.Country to concerto.Concept--><g id="link_test.Country_concerto.Concept"><path codeLine="11" d="M427.855,207.4069 C421.16,215.6999 414.112,223.8809 407,231.2969 C394.22,244.6239 379.111,257.8559 364.959,269.3653 " fill="none" id="test.Country-to-concerto.Concept" style="stroke:#181818;stroke-width:1.0;"/><polygon fill="none" points="369.015,275.082,348.982,281.9882,360.336,264.0969,369.015,275.082" style="stroke:#181818;stroke-width:1.0;"/></g><!--link test.Address to concerto.Concept--><g id="link_test.Address_concerto.Concept"><path codeLine="18" d="M317,199.3759 C317,219.8169 317,242.6479 317,261.8649 " fill="none" id="test.Address-to-concerto.Concept" style="stroke:#181818;stroke-width:1.0;"/><polygon fill="none" points="324,262.0529,317,282.0531,310,262.0529,324,262.0529" style="stroke:#181818;stroke-width:1.0;"/></g><!--link test.Person to concerto.Concept--><g id="link_test.Person_concerto.Concept"><path codeLine="25" d="M185.173,199.3759 C214.144,222.6539 246.973,249.0319 272.624,269.6413 " fill="none" id="test.Person-to-concerto.Concept" style="stroke:#181818;stroke-width:1.0;"/><polygon fill="none" points="277.124,264.2773,288.33,282.2611,268.355,275.1909,277.124,264.2773" style="stroke:#181818;stroke-width:1.0;"/></g><!--SRC=[XO_1QiCm44Jl-eezDgJ95nY3wZY113l6QGyzkjB65ZXIa3O7a_JVAoe9wbBeQMRdCFEM58t8AYDnPAWbVPzYx9m3GaVhmjmqsGco39xAvzxYj80yXpi3W2My7QAUU33RbjT56VokR2jUluTZpnjUiqysArsj7Za8emLQCZxrvae_rxcK5lqHvqvabUx1aKMaMIGKJRFWQXmL_giGfa4HD76a-dyv6hJEw5yOkhl4-jJJ1GtXnjm-HeG1LJz4s4r7-Aek2DARu_b5MHeIIvpu4-KB]--></g></svg>