<?xml version="1.0" encoding="us-ascii" standalone="no"?><svg xmlns="http://www.w3.org/2000/svg" xmlns:xlink="http://www.w3.org/1999/xlink" contentStyleType="text/css" height="387px" preserveAspectRatio="none" style="width:553px;height:387px;background:#FFFFFF;" version="1.1" viewBox="0 0 553 387" width="553px" zoomAndPan="magnify"><defs/><g><text fill="#000000" font-family="sans-serif" font-size="14" font-weight="bold" lengthAdjust="spacing" textLength="44" x="247.5" y="23.5352">Model</text><!--cluster test--><g id="cluster_test"><path d="M8.5,43.4883 L37.5,43.4883 A3.75,3.75 0 0 1 40,45.9883 L47,65.9766 L543.5,65.9766 A2.5,2.5 0 0 1 546,68.4766 L546,222.4283 A2.5,2.5 0 0 1 543.5,224.9283 L8.5,224.9283 A2.5,2.5 0 0 1 6,222.4283 L6,45.9883 A2.5,2.5 0 0 1 8.5,43.4883 " fill="none" style="stroke:#000000;stroke-width:1.5;"/><line style="stroke:#000000;stroke-width:1.5;" x1="6" x2="47" y1="65.9766" y2="65.9766"/><text fill="#000000" font-family="sans-serif" font-size="14" font-weight="bold" lengthAdjust="spacing" textLength="28" x="10" y="59.0234">test</text></g><!--cluster concertoPkg--><g id="cluster_concertoPkg"><path d="M131.5,256.9283 L193.5,256.9283 A3.75,3.75 0 0 1 196,259.4283 L203,279.4166 L317.5,279.4166 A2.5,2.5 0 0 1 320,281.9166 L320,378.0483 A2.5,2.5 0 0 1 317.5,380.5483 L131.5,380.5483 A2.5,2.5 0 0 1 129,378.0483 L129,259.4283 A2.5,2.5 0 0 1 131.5,256.9283 " fill="none" style="stroke:#000000;stroke-width:1.5;"/><line style="stroke:#000000;stroke-width:1.5;" x1="129" x2="203" y1="279.4166" y2="279.4166"/><text fill="#000000" font-family="sans-serif" font-size="14" font-weight="bold" lengthAdjust="spacing" textLength="61" x="133" y="272.4634">concerto</text></g><!--class Person--><g id="elem_Person"><rect codeLine="13" fill="#F1F1F1" height="122.5742" id="Person" rx="2.5" ry="2.5" style="stroke:#181818;stroke-width:0.5;" width="159" x="21.5" y="82.4183"/><ellipse cx="69.25" cy="102.7288" fill="#ADD1B2" rx="11" ry="11" style="stroke:#181818;stroke-width:1.0;"/><path d="M71.7231,108.8719 Q71.1421,109.1707 70.5029,109.3201 Q69.8638,109.4696 69.1582,109.4696 Q66.6514,109.4696 65.3315,107.8177 Q64.0117,106.1658 64.0117,103.0447 Q64.0117,99.9154 65.3315,98.2635 Q66.6514,96.6116 69.1582,96.6116 Q69.8638,96.6116 70.5112,96.7611 Q71.1587,96.9105 71.7231,97.2093 L71.7231,99.932 Q71.0923,99.3509 70.4988,99.0811 Q69.9053,98.8113 69.2744,98.8113 Q67.9297,98.8113 67.2449,99.878 Q66.5601,100.9446 66.5601,103.0447 Q66.5601,105.1365 67.2449,106.2032 Q67.9297,107.2698 69.2744,107.2698 Q69.9053,107.2698 70.4988,107.0001 Q71.0923,106.7303 71.7231,106.1492 Z " fill="#000000"/><text fill="#000000" font-family="sans-serif" font-size="12" font-style="italic" lengthAdjust="spacing" textLength="59" x="87.75" y="99.0198">&#171;Concept&#187;</text><text fill="#000000" font-family="sans-serif" font-size="14" lengthAdjust="spacing" textLength="47" x="93.75" y="115.0863">Person</text><line style="stroke:#181818;stroke-width:0.5;" x1="22.5" x2="179.5" y1="123.0394" y2="123.0394"/><text fill="#000000" font-family="sans-serif" font-size="14" lengthAdjust="spacing" textLength="83" x="27.5" y="140.5745">String name</text><text fill="#000000" font-family="sans-serif" font-size="14" lengthAdjust="spacing" textLength="114" x="27.5" y="157.0628">Address address</text><text fill="#000000" font-family="sans-serif" font-size="14" lengthAdjust="spacing" textLength="97" x="27.5" y="173.5511">Double height</text><text fill="#000000" font-family="sans-serif" font-size="14" lengthAdjust="spacing" textLength="147" x="27.5" y="190.0394">DateTime dateOfBirth</text><line style="stroke:#181818;stroke-width:0.5;" x1="22.5" x2="179.5" y1="196.9925" y2="196.9925"/></g><!--class Address--><g id="elem_Address"><rect codeLine="20" fill="#F1F1F1" height="122.5742" id="Address" rx="2.5" ry="2.5" style="stroke:#181818;stroke-width:0.5;" width="123" x="250.5" y="82.4183"/><ellipse cx="281.25" cy="102.7288" fill="#ADD1B2" rx="11" ry="11" style="stroke:#181818;stroke-width:1.0;"/><path d="M283.7231,108.8719 Q283.1421,109.1707 282.5029,109.3201 Q281.8638,109.4696 281.1582,109.4696 Q278.6514,109.4696 277.3315,107.8177 Q276.0117,106.1658 276.0117,103.0447 Q276.0117,99.9154 277.3315,98.2635 Q278.6514,96.6116 281.1582,96.6116 Q281.8638,96.6116 282.5112,96.7611 Q283.1587,96.9105 283.7231,97.2093 L283.7231,99.932 Q283.0923,99.3509 282.4988,99.0811 Q281.9053,98.8113 281.2744,98.8113 Q279.9297,98.8113 279.2449,99.878 Q278.5601,100.9446 278.5601,103.0447 Q278.5601,105.1365 279.2449,106.2032 Q279.9297,107.2698 281.2744,107.2698 Q281.9053,107.2698 282.4988,107.0001 Q283.0923,106.7303 283.7231,106.1492 Z " fill="#000000"/><text fill="#000000" font-family="sans-serif" font-size="12" font-style="italic" lengthAdjust="spacing" textLength="59" x="297.25" y="99.0198">&#171;Concept&#187;</text><text fill="#000000" font-family="sans-serif" font-size="14" lengthAdjust="spacing" textLength="56" x="298.75" y="115.0863">Address</text><line style="stroke:#181818;stroke-width:0.5;" x1="251.5" x2="372.5" y1="123.0394" y2="123.0394"/><text fill="#000000" font-family="sans-serif" font-size="14" lengthAdjust="spacing" textLength="84" x="256.5" y="140.5745">String street</text><text fill="#000000" font-family="sans-serif" font-size="14" lengthAdjust="spacing" textLength="68" x="256.5" y="157.0628">String city</text><text fill="#000000" font-family="sans-serif" font-size="14" lengthAdjust="spacing" textLength="111" x="256.5" y="173.5511">String postCode</text><text fill="#000000" font-family="sans-serif" font-size="14" lengthAdjust="spacing" textLength="111" x="256.5" y="190.0394">Country country</text><line style="stroke:#181818;stroke-width:0.5;" x1="251.5" x2="372.5" y1="196.9925" y2="196.9925"/></g><!--class Country--><g id="elem_Country"><rect codeLine="27" fill="#F1F1F1" height="130.4414" id="Country" rx="2.5" ry="2.5" style="stroke:#181818;stroke-width:0.5;" width="87" x="443.5" y="78.4883"/><ellipse cx="458.5" cy="94.4883" fill="#EB937F" rx="11" ry="11" style="stroke:#181818;stroke-width:1.0;"/><path d="M462.1143,100.9883 L454.3945,100.9883 L454.3945,88.5952 L462.1143,88.5952 L462.1143,90.7534 L456.8433,90.7534 L456.8433,93.4263 L461.6162,93.4263 L461.6162,95.5845 L456.8433,95.5845 L456.8433,98.8301 L462.1143,98.8301 Z " fill="#000000"/><text fill="#000000" font-family="sans-serif" font-size="14" lengthAdjust="spacing" textLength="55" x="472.5" y="99.7793">Country</text><line style="stroke:#181818;stroke-width:0.5;" x1="444.5" x2="529.5" y1="110.4883" y2="110.4883"/><text fill="#000000" font-family="sans-serif" font-size="14" lengthAdjust="spacing" textLength="19" x="449.5" y="128.0234">UK</text><text fill="#000000" font-family="sans-serif" font-size="14" lengthAdjust="spacing" textLength="28" x="449.5" y="144.5117">USA</text><text fill="#000000" font-family="sans-serif" font-size="14" lengthAdjust="spacing" textLength="55" x="449.5" y="161">FRANCE</text><text fill="#000000" font-family="sans-serif" font-size="14" lengthAdjust="spacing" textLength="68" x="449.5" y="177.4883">GERMANY</text><text fill="#000000" font-family="sans-serif" font-size="14" lengthAdjust="spacing" textLength="42" x="449.5" y="193.9766">JAPAN</text><line style="stroke:#181818;stroke-width:0.5;" x1="444.5" x2="529.5" y1="200.9297" y2="200.9297"/></g><!--class Concept--><g id="elem_Concept"><rect codeLine="38" fill="#F1F1F1" height="56.6211" id="Concept" rx="2.5" ry="2.5" style="stroke:#181818;stroke-width:0.5;" width="89" x="152.5" y="299.9283"/><ellipse cx="167.5" cy="320.2388" fill="#ADD1B2" rx="11" ry="11" style="stroke:#181818;stroke-width:1.0;"/><path d="M169.9731,326.3819 Q169.3921,326.6807 168.7529,326.8301 Q168.1138,326.9796 167.4082,326.9796 Q164.9014,326.9796 163.5815,325.3277 Q162.2617,323.6758 162.2617,320.5547 Q162.2617,317.4254 163.5815,315.7735 Q164.9014,314.1216 167.4082,314.1216 Q168.1138,314.1216 168.7612,314.2711 Q169.4087,314.4205 169.9731,314.7193 L169.9731,317.442 Q169.3423,316.8609 168.7488,316.5911 Q168.1553,316.3213 167.5244,316.3213 Q166.1797,316.3213 165.4949,317.388 Q164.8101,318.4546 164.8101,320.5547 Q164.8101,322.6465 165.4949,323.7132 Q166.1797,324.7798 167.5244,324.7798 Q168.1553,324.7798 168.7488,324.5101 Q169.3423,324.2403 169.9731,323.6592 Z " fill="#000000"/><text fill="#000000" font-family="sans-serif" font-size="12" font-style="italic" lengthAdjust="spacing" textLength="59" x="180.5" y="316.5298">&#171;Concept&#187;</text><text fill="#000000" font-family="sans-serif" font-size="14" lengthAdjust="spacing" textLength="57" x="181.5" y="332.5963">Concept</text><line style="stroke:#181818;stroke-width:0.5;" x1="153.5" x2="240.5" y1="340.5494" y2="340.5494"/><line style="stroke:#181818;stroke-width:0.5;" x1="153.5" x2="240.5" y1="348.5494" y2="348.5494"/></g><!--link Person to concertoPkg--><g id="link_Person_concertoPkg"><path codeLine="43" d="M180.71,143.5483 C214.4,143.5483 246,143.5483 246,143.5483 C246,143.5483 246,189.7983 246,236.0483 C246,241.8295 246,247.6108 246,253.3017 C246,254.0131 246,254.723 246,255.4314 C246,255.7856 246,250.1394 246,250.4927 " fill="none" id="Person-to-concertoPkg" style="stroke:#181818;stroke-width:1.0;"/><polygon fill="#181818" points="246,256.4927,250,247.4927,246,251.4927,242,247.4927,246,256.4927" style="stroke:#181818;stroke-width:1.0;"/></g><!--link Address to concertoPkg--><g id="link_Address_concertoPkg"><path codeLine="44" d="M312,205.4083 C312,217.9808 312,231.407 312,244.5963 C312,247.8936 312,251.176 312,254.4267 C312,255.2393 312,250.05 312,250.8584 " fill="none" id="Address-to-concertoPkg" style="stroke:#181818;stroke-width:1.0;"/><polygon fill="#181818" points="312,256.8584,316,247.8584,312,251.8584,308,247.8584,312,256.8584" style="stroke:#181818;stroke-width:1.0;"/></g><!--link Country to concertoPkg--><g id="link_Country_concertoPkg"><path codeLine="45" d="M487,209.3983 C487,262.5283 487,328.5483 487,328.5483 C487,328.5483 446.6,328.5483 404.6225,328.5483 C383.6337,328.5483 362.2506,328.5483 345.3259,328.5483 C336.8636,328.5483 329.5159,328.5483 323.8893,328.5483 C322.4827,328.5483 327.1836,328.5483 326.0016,328.5483 " fill="none" id="Country-to-concertoPkg" style="stroke:#181818;stroke-width:1.0;"/><polygon fill="#181818" points="320.0016,328.5483,329.0016,332.5483,325.0016,328.5483,329.0016,324.5483,320.0016,328.5483" style="stroke:#181818;stroke-width:1.0;"/></g><!--SRC=[TLB1JiCm3BttAwmTs92Oj1iSfacXsz20RLKB0evPwxLHswHANA62-7UoTXsPD79n_5xx_Enu2EFJWMVUg9hW2Wmr1SAebd76POh9jVELPt8XAwvv2OMGI4s5e3HboY6aIj1W1RSJ1zHSvWVmpWLDnXFrAMGAUruOT9YuuCOm8YrsDU4gLZ8INmWJpoD1rjtQrYWyR-Ws4F0uvoaQrsxLOJ0WD3I0Ry-3JXi2r4P9c4vz9MEiQ3QpBDWJsQBMaUGbjZbB4ets1zx55fkhUcTTP2ZIZ3g44xw84Y6nb-t-NjYXMEBdhs2lysz5GngHN2GMrBXvfGpvjlCMyrKjIJSGTx4lXh8kJrod__hKXOYrSHcoZRzehm-BSCqs7-tzaGLiqwfOdTFSueDNJMe0t42V17dgZlBOZzlPGUFyTPQhzyKSM1Xkto8OLKf80b9mB7HZjuPweRE5ExuJZEscoF7CzU3r8xt4zIEumFq2]--></g></svg>