<?xml version="1.0" encoding="UTF-8"?>
<svg width="1200pt" height="1200pt" version="1.1" viewBox="0 0 1200 1200" xmlns="http://www.w3.org/2000/svg">
 <g>
  <path d="m768.28 605.86c31.406 0 56.719-25.547 56.719-56.719s-25.547-56.953-56.719-56.953c-31.406 0-56.719 25.547-56.719 56.719-0.23438 31.406 25.312 56.953 56.719 56.953zm0-85.547c15.938 0 28.594 12.891 28.594 28.594 0 15.938-12.891 28.594-28.594 28.594-15.938 0-28.594-12.891-28.594-28.594-0.23438-15.703 12.656-28.594 28.594-28.594z"/>
  <path d="m570.7 599.3c8.2031 4.2188 17.344 6.5625 26.484 6.5625 11.25 0 22.031-3.2812 31.406-9.375l90 90.469c-15.234 27.422-5.3906 61.875 22.031 77.109 5.1562 2.8125 10.547 4.9219 16.406 6.0938v59.531c-30.703 6.0938-50.625 36.094-44.531 66.797s36.094 50.625 66.797 44.531 50.625-36.094 44.531-66.797c-3.9844-20.391-18.984-36.797-38.672-43.125v-62.578c30-9.375 46.641-41.25 37.266-71.016-9.375-30-41.25-46.641-71.016-37.266-4.6875 1.4062-9.375 3.5156-13.594 6.3281l-90.469-90.938c14.531-27.656 3.9844-62.109-23.906-76.641s-62.109-3.9844-76.641 23.906-3.9844 61.875 23.906 76.406zm226.17 286.17c0 15.938-12.891 28.594-28.594 28.594-15.938 0-28.594-12.891-28.594-28.594 0-15.938 12.891-28.594 28.594-28.594 15.703-0.23438 28.594 12.656 28.594 28.594zm-28.594-199.92c15.938 0 28.594 12.891 28.594 28.594 0 15.938-12.891 28.594-28.594 28.594-15.938 0-28.594-12.891-28.594-28.594-0.23438-15.703 12.656-28.594 28.594-28.594zm-171.09-165.23c15.938 0 28.594 12.891 28.594 28.594 0 15.938-12.891 28.594-28.594 28.594-15.938 0-28.594-12.891-28.594-28.594-0.23438-15.703 12.656-28.594 28.594-28.594z"/>
  <path d="m414.84 603.28v56.719c-23.672 7.5-39.844 29.297-39.844 54.141 0 31.406 25.312 56.719 56.719 56.719 4.2188 0 8.2031-0.46875 12.188-1.4062l98.906 98.906c-9.1406 30 7.5 61.875 37.5 71.016s61.875-7.5 71.016-37.5-7.5-61.641-37.266-71.016v-62.578c30-9.375 46.641-41.25 37.266-71.25s-41.25-46.641-71.25-37.266-46.641 41.25-37.266 71.25c6.0938 19.922 22.734 34.688 43.125 38.906v59.766c-10.547 2.1094-20.156 7.0312-27.891 14.531l-87.891-87.891c23.203-21.094 24.609-57.188 3.5156-80.156-8.2031-8.9062-18.984-15-30.703-17.344v-53.906c30.703-6.0938 50.625-36.094 44.531-66.797s-36.094-50.625-66.797-44.531-50.625 36.094-44.531 66.797c3.9844 20.156 18.984 36.797 38.672 42.891zm153.52 111.09c0-15.938 12.891-28.594 28.594-28.594 15.938 0 28.594 12.891 28.594 28.594s-12.891 28.594-28.594 28.594-28.594-12.891-28.594-28.594zm28.828 142.27c15.938 0 28.594 12.891 28.594 28.594 0 15.938-12.891 28.594-28.594 28.594-15.938 0-28.594-12.891-28.594-28.594-0.23438-15.703 12.656-28.594 28.594-28.594zm-136.64-142.27c0 15.938-12.891 28.594-28.594 28.594-15.938 0-28.594-12.891-28.594-28.594 0-15.938 12.891-28.594 28.594-28.594 15.703-0.23438 28.594 12.656 28.594 28.594zm-28.828-194.06c15.938 0 28.594 12.891 28.594 28.594s-12.891 28.594-28.594 28.594c-15.938 0-28.594-12.891-28.594-28.594s12.891-28.594 28.594-28.594z"/>
  <path d="m431.72 828.52c-31.406 0-56.719 25.547-56.719 56.719 0 31.406 25.547 56.719 56.719 56.719 31.406 0 56.719-25.547 56.719-56.719 0.23438-31.172-25.312-56.719-56.719-56.719zm0 85.547c-15.938 0-28.594-12.891-28.594-28.594 0-15.938 12.891-28.594 28.594-28.594 15.938 0 28.594 12.891 28.594 28.594 0.23438 15.703-12.656 28.594-28.594 28.594z"/>
  <path d="m986.72 164.06h-773.44c-59.531 0-107.81 48.281-107.81 107.81v656.25c0 59.531 48.281 107.81 107.81 107.81h773.44c59.531 0 107.81-48.281 107.81-107.81v-656.25c0-59.531-48.281-107.81-107.81-107.81zm79.688 764.06c0 44.062-35.625 79.688-79.688 79.688h-773.44c-44.062 0-79.688-35.625-79.688-79.688v-506.25h932.81zm0-534.38h-932.81v-121.88c0-44.062 35.625-79.688 79.688-79.688h773.44c44.062 0 79.688 35.625 79.688 79.688z"/>
  <path d="m383.2 244.69c-27.188 0-49.453 22.266-49.219 49.453 0 27.188 22.031 49.219 49.219 49.219h0.23438c27.188 0 49.453-22.266 49.219-49.453 0-27.188-22.031-49.219-49.453-49.219zm0.23438 70.781c-11.953 0-21.328-9.6094-21.328-21.562 0-11.719 9.6094-21.328 21.562-21.328s21.328 9.6094 21.328 21.562c-0.23438 11.719-9.8438 21.328-21.562 21.328z"/>
  <path d="m224.06 243.75c-27.422 0.23438-49.453 22.734-49.219 50.156 0.23438 26.953 22.031 48.516 48.75 48.984h0.23438c27.422-0.23438 49.219-22.734 48.984-50.156-0.23438-26.719-21.797-48.516-48.75-48.984zm-0.23438 71.016c-11.953 0-21.328-9.6094-21.328-21.562 0-5.625 2.3438-11.25 6.3281-15.234s9.375-6.3281 15.234-6.3281c11.953 0 21.328 9.6094 21.328 21.562 0 12.188-9.6094 21.797-21.562 21.562z"/>
  <path d="m543.05 244.92c-13.125 0-25.781 5.1562-35.156 14.297-19.453 19.219-19.453 50.625-0.23438 70.078 9.375 9.375 21.797 14.531 34.922 14.531h0.23438c27.422 0 49.453-22.031 49.688-49.453 0.23438-27.188-22.031-49.453-49.453-49.453zm0 71.016c-11.953 0-21.562-9.6094-21.562-21.562 0-5.625 2.3438-11.25 6.3281-15.234s9.375-6.3281 15.234-6.3281c11.953 0.23438 21.328 9.8438 21.094 21.797 0 11.719-9.6094 21.094-21.094 21.328z"/>
 </g>
</svg>
